<svg xmlns="http://www.w3.org/2000/svg" viewBox="0 0 19 10">
  <!-- 13 stripes: red base + 6 white stripes -->
  <rect width="19" height="10" fill="#B22234"/>
  <rect y=".769" width="19" height=".769" fill="#fff"/>
  <rect y="2.308" width="19" height=".769" fill="#fff"/>
  <rect y="3.846" width="19" height=".769" fill="#fff"/>
  <rect y="5.385" width="19" height=".769" fill="#fff"/>
  <rect y="6.923" width="19" height=".769" fill="#fff"/>
  <rect y="8.462" width="19" height=".769" fill="#fff"/>
  <!-- Blue canton -->
  <rect width="7.6" height="5.385" fill="#3C3B6E"/>
  <!-- Stars: 5 rows of 6 and 4 rows of 5 (simplified as small dots) -->
  <g fill="#fff">
    <circle cx=".63" cy=".54" r=".28"/><circle cx="1.52" cy=".54" r=".28"/><circle cx="2.41" cy=".54" r=".28"/><circle cx="3.3"  cy=".54" r=".28"/><circle cx="4.19" cy=".54" r=".28"/><circle cx="5.08" cy=".54" r=".28"/><circle cx="5.97" cy=".54" r=".28"/>
    <circle cx="1.08" cy="1.08" r=".28"/><circle cx="1.97" cy="1.08" r=".28"/><circle cx="2.86" cy="1.08" r=".28"/><circle cx="3.75" cy="1.08" r=".28"/><circle cx="4.64" cy="1.08" r=".28"/><circle cx="5.53" cy="1.08" r=".28"/>
    <circle cx=".63" cy="1.62" r=".28"/><circle cx="1.52" cy="1.62" r=".28"/><circle cx="2.41" cy="1.62" r=".28"/><circle cx="3.3"  cy="1.62" r=".28"/><circle cx="4.19" cy="1.62" r=".28"/><circle cx="5.08" cy="1.62" r=".28"/><circle cx="5.97" cy="1.62" r=".28"/>
    <circle cx="1.08" cy="2.15" r=".28"/><circle cx="1.97" cy="2.15" r=".28"/><circle cx="2.86" cy="2.15" r=".28"/><circle cx="3.75" cy="2.15" r=".28"/><circle cx="4.64" cy="2.15" r=".28"/><circle cx="5.53" cy="2.15" r=".28"/>
    <circle cx=".63" cy="2.69" r=".28"/><circle cx="1.52" cy="2.69" r=".28"/><circle cx="2.41" cy="2.69" r=".28"/><circle cx="3.3"  cy="2.69" r=".28"/><circle cx="4.19" cy="2.69" r=".28"/><circle cx="5.08" cy="2.69" r=".28"/><circle cx="5.97" cy="2.69" r=".28"/>
    <circle cx="1.08" cy="3.23" r=".28"/><circle cx="1.97" cy="3.23" r=".28"/><circle cx="2.86" cy="3.23" r=".28"/><circle cx="3.75" cy="3.23" r=".28"/><circle cx="4.64" cy="3.23" r=".28"/><circle cx="5.53" cy="3.23" r=".28"/>
    <circle cx=".63" cy="3.77" r=".28"/><circle cx="1.52" cy="3.77" r=".28"/><circle cx="2.41" cy="3.77" r=".28"/><circle cx="3.3"  cy="3.77" r=".28"/><circle cx="4.19" cy="3.77" r=".28"/><circle cx="5.08" cy="3.77" r=".28"/><circle cx="5.97" cy="3.77" r=".28"/>
    <circle cx="1.08" cy="4.31" r=".28"/><circle cx="1.97" cy="4.31" r=".28"/><circle cx="2.86" cy="4.31" r=".28"/><circle cx="3.75" cy="4.31" r=".28"/><circle cx="4.64" cy="4.31" r=".28"/><circle cx="5.53" cy="4.31" r=".28"/>
    <circle cx=".63" cy="4.85" r=".28"/><circle cx="1.52" cy="4.85" r=".28"/><circle cx="2.41" cy="4.85" r=".28"/><circle cx="3.3"  cy="4.85" r=".28"/><circle cx="4.19" cy="4.85" r=".28"/><circle cx="5.08" cy="4.85" r=".28"/><circle cx="5.97" cy="4.85" r=".28"/>
  </g>
</svg>
